<mxfile host="app.diagrams.net" modified="2023-09-22T15:20:19.475Z" agent="Mozilla/5.0 (Macintosh; Intel Mac OS X 10_15_7) AppleWebKit/537.36 (KHTML, like Gecko) Chrome/116.0.0.0 Safari/537.36" etag="HUFGZzvpRswNi2p3Nni7" version="21.8.0" type="github">
  <diagram name="第 1 页" id="US__9pEuS_oKk_frkMYs">
    <mxGraphModel dx="1434" dy="681" grid="1" gridSize="10" guides="1" tooltips="1" connect="1" arrows="1" fold="1" page="1" pageScale="1" pageWidth="827" pageHeight="1169" math="0" shadow="0">
      <root>
        <mxCell id="0" />
        <mxCell id="1" parent="0" />
        <mxCell id="gvLNdDvk25PgSDNAPG3A-1" value="BERT" style="rounded=1;whiteSpace=wrap;html=1;" vertex="1" parent="1">
          <mxGeometry x="350" y="320" width="120" height="60" as="geometry" />
        </mxCell>
        <mxCell id="gvLNdDvk25PgSDNAPG3A-2" value="" style="rounded=1;whiteSpace=wrap;html=1;" vertex="1" parent="1">
          <mxGeometry x="350" y="320" width="120" height="60" as="geometry" />
        </mxCell>
        <mxCell id="gvLNdDvk25PgSDNAPG3A-3" value="BERT" style="rounded=1;whiteSpace=wrap;html=1;" vertex="1" parent="1">
          <mxGeometry x="350" y="320" width="140" height="60" as="geometry" />
        </mxCell>
        <mxCell id="gvLNdDvk25PgSDNAPG3A-6" value="" style="rounded=1;whiteSpace=wrap;html=1;" vertex="1" parent="1">
          <mxGeometry x="350" y="420" width="20" height="60" as="geometry" />
        </mxCell>
        <mxCell id="gvLNdDvk25PgSDNAPG3A-7" value="" style="rounded=1;whiteSpace=wrap;html=1;" vertex="1" parent="1">
          <mxGeometry x="390" y="420" width="20" height="60" as="geometry" />
        </mxCell>
        <mxCell id="gvLNdDvk25PgSDNAPG3A-8" value="" style="rounded=1;whiteSpace=wrap;html=1;" vertex="1" parent="1">
          <mxGeometry x="430" y="420" width="20" height="60" as="geometry" />
        </mxCell>
        <mxCell id="gvLNdDvk25PgSDNAPG3A-9" value="" style="rounded=1;whiteSpace=wrap;html=1;" vertex="1" parent="1">
          <mxGeometry x="470" y="420" width="20" height="60" as="geometry" />
        </mxCell>
        <mxCell id="gvLNdDvk25PgSDNAPG3A-11" style="edgeStyle=orthogonalEdgeStyle;rounded=0;orthogonalLoop=1;jettySize=auto;html=1;exitX=0.25;exitY=0;exitDx=0;exitDy=0;entryX=0.064;entryY=1.017;entryDx=0;entryDy=0;entryPerimeter=0;" edge="1" parent="1" source="gvLNdDvk25PgSDNAPG3A-6" target="gvLNdDvk25PgSDNAPG3A-3">
          <mxGeometry relative="1" as="geometry" />
        </mxCell>
        <mxCell id="gvLNdDvk25PgSDNAPG3A-13" style="edgeStyle=orthogonalEdgeStyle;rounded=0;orthogonalLoop=1;jettySize=auto;html=1;exitX=0.5;exitY=0;exitDx=0;exitDy=0;entryX=0.35;entryY=1.017;entryDx=0;entryDy=0;entryPerimeter=0;" edge="1" parent="1" source="gvLNdDvk25PgSDNAPG3A-7" target="gvLNdDvk25PgSDNAPG3A-3">
          <mxGeometry relative="1" as="geometry" />
        </mxCell>
        <mxCell id="gvLNdDvk25PgSDNAPG3A-14" style="edgeStyle=orthogonalEdgeStyle;rounded=0;orthogonalLoop=1;jettySize=auto;html=1;exitX=0.5;exitY=0;exitDx=0;exitDy=0;entryX=0.643;entryY=1;entryDx=0;entryDy=0;entryPerimeter=0;" edge="1" parent="1" source="gvLNdDvk25PgSDNAPG3A-8" target="gvLNdDvk25PgSDNAPG3A-3">
          <mxGeometry relative="1" as="geometry" />
        </mxCell>
        <mxCell id="gvLNdDvk25PgSDNAPG3A-15" style="edgeStyle=orthogonalEdgeStyle;rounded=0;orthogonalLoop=1;jettySize=auto;html=1;exitX=0.25;exitY=0;exitDx=0;exitDy=0;entryX=0.929;entryY=1.033;entryDx=0;entryDy=0;entryPerimeter=0;" edge="1" parent="1" source="gvLNdDvk25PgSDNAPG3A-9" target="gvLNdDvk25PgSDNAPG3A-3">
          <mxGeometry relative="1" as="geometry" />
        </mxCell>
      </root>
    </mxGraphModel>
  </diagram>
</mxfile>
